Coordinates
version=1
nRows=41
nColumns=38
inDegrees=no

Units are S.I. units (second, meters, Newtons, ...)
If the header above contains a line with 'inDegrees', this indicates whether rotational values are in degrees (yes) or radians (no).

endheader
time	pelvis_tilt	pelvis_list	pelvis_rotation	pelvis_tx	pelvis_ty	pelvis_tz	hip_flexion_r	hip_adduction_r	hip_rotation_r	knee_angle_r	ankle_angle_r	subtalar_angle_r	mtp_angle_r	hip_flexion_l	hip_adduction_l	hip_rotation_l	knee_angle_l	ankle_angle_l	subtalar_angle_l	mtp_angle_l	lumbar_extension	lumbar_bending	lumbar_rotation	arm_flex_r	arm_add_r	arm_rot_r	elbow_flex_r	pro_sup_r	wrist_flex_r	wrist_dev_r	arm_flex_l	arm_add_l	arm_rot_l	elbow_flex_l	pro_sup_l	wrist_flex_l	wrist_dev_l
0	-0.25914	1.50809	-1.15335	0.656966	1.71423	0.947661	0.239388	-0.0323554	-0.367475	0.439306	0.108293	0	0	0.241351	-0.0821953	0.0498574	1.36718	-0.0506949	0	0	-0.128	0.0809017	-0.145258	-0.133776	-0.198518	0.195744	0.5048	1.05441	0	0	-0.127469	-0.218557	0.348228	0.686446	0.845774	0	0
0.01	-0.224067	1.51033	-1.19567	0.656054	1.70504	0.949354	0.223503	-0.0291783	-0.363889	0.425479	0.11049	0	0	0.269525	-0.0758442	0.0477779	1.37678	-0.048357	0	0	-0.127466	0.0772961	-0.135287	-0.125805	-0.201936	0.205135	0.505012	1.04211	0	0	-0.130831	-0.219454	0.346146	0.693196	0.844134	0	0
0.02	-0.200505	1.50811	-1.22714	0.654813	1.69526	0.951378	0.199187	-0.0214144	-0.355854	0.403522	0.11004	0	0	0.290046	-0.0737288	0.0438835	1.37964	-0.0436726	0	0	-0.131335	0.0759138	-0.124544	-0.117793	-0.202258	0.198003	0.502943	1.06233	0	0	-0.135432	-0.216724	0.32984	0.697402	0.8761	0	0
0.03	-0.168725	1.5059	-1.26817	0.653622	1.68538	0.953235	0.175742	-0.0150177	-0.346832	0.383988	0.110406	0	0	0.308673	-0.0722825	0.0375081	1.37836	-0.036239	0	0	-0.135167	0.0735777	-0.112818	-0.110718	-0.204658	0.201288	0.505095	1.05826	0	0	-0.140494	-0.216194	0.321053	0.704251	0.885082	0	0
0.04	-0.13355	1.50341	-1.31252	0.652445	1.67545	0.954917	0.152691	-0.00962368	-0.337314	0.365828	0.11096	0	0	0.325743	-0.0705375	0.030666	1.37299	-0.0267047	0	0	-0.139343	0.0708601	-0.101705	-0.103433	-0.207287	0.205474	0.507579	1.05554	0	0	-0.145828	-0.215665	0.311298	0.711164	0.894312	0	0
0.05	-0.0931976	1.49929	-1.35969	0.651509	1.66568	0.956591	0.127317	-0.00490276	-0.327575	0.346537	0.111066	0	0	0.340225	-0.0673426	0.026232	1.36359	-0.0154401	0	0	-0.145611	0.0681181	-0.0932761	-0.0950344	-0.209889	0.211752	0.50757	1.05376	0	0	-0.150955	-0.215296	0.300495	0.719491	0.902908	0	0
0.06	-0.0500035	1.49567	-1.41129	0.650479	1.65593	0.958018	0.104019	-0.00156867	-0.316596	0.330071	0.112228	0	0	0.353785	-0.0643918	0.019679	1.35043	-0.0030086	0	0	-0.151278	0.064404	-0.0832671	-0.0866487	-0.212231	0.217004	0.507294	1.05223	0	0	-0.155421	-0.215111	0.291699	0.726604	0.907923	0	0
0.07	-0.00938977	1.49188	-1.46091	0.649444	1.64626	0.959287	0.0812469	0.00117913	-0.304867	0.314695	0.113735	0	0	0.365936	-0.062111	0.0121726	1.33376	0.00998554	0	0	-0.156968	0.0603463	-0.0727265	-0.0781611	-0.214375	0.221879	0.507567	1.05107	0	0	-0.159191	-0.214909	0.284201	0.732376	0.910628	0	0
0.08	0.0279218	1.48795	-1.50663	0.648534	1.63656	0.960389	0.0588069	0.00317021	-0.294108	0.300319	0.115846	0	0	0.37691	-0.0599817	0.00447979	1.31341	0.0221058	0	0	-0.162568	0.056181	-0.0626953	-0.0695899	-0.216274	0.226292	0.507675	1.04972	0	0	-0.162481	-0.214855	0.278152	0.737385	0.911515	0	0
0.09	0.0675281	1.48524	-1.55304	0.64804	1.62708	0.961191	0.03978	0.00297307	-0.288027	0.290322	0.119889	0	0	0.3889	-0.0566515	-0.00201459	1.28988	0.0319599	0	0	-0.166829	0.0518078	-0.0542205	-0.0609609	-0.218243	0.23012	0.508031	1.04713	0	0	-0.164871	-0.214881	0.274456	0.741277	0.910687	0	0
0.1	0.0840488	1.47909	-1.5759	0.647266	1.61759	0.962209	0.0120889	0.00706267	-0.272744	0.268964	0.118209	0	0	0.395351	-0.0562246	-0.00863875	1.26169	0.040524	0	0	-0.175323	0.0491976	-0.047006	-0.0495758	-0.217385	0.221956	0.503166	1.08062	0	0	-0.167243	-0.211969	0.25949	0.743467	0.933087	0	0
0.11	0.106975	1.47556	-1.60697	0.646476	1.60827	0.962768	-0.00809763	0.00821889	-0.261249	0.256816	0.12044	0	0	0.403485	-0.0566537	-0.0184372	1.23091	0.047144	0	0	-0.180833	0.0453946	-0.0383194	-0.039262	-0.21895	0.22628	0.502572	1.08392	0	0	-0.169254	-0.211121	0.253216	0.746661	0.93482	0	0
0.12	0.128224	1.47302	-1.63538	0.645793	1.59883	0.96308	-0.0266458	0.00883899	-0.251505	0.246115	0.123465	0	0	0.411284	-0.0580549	-0.0295099	1.19721	0.0530132	0	0	-0.184617	0.0415325	-0.0309808	-0.0292635	-0.220139	0.230928	0.501458	1.08751	0	0	-0.172229	-0.21103	0.248451	0.750452	0.936461	0	0
0.13	0.151623	1.47087	-1.66506	0.645262	1.58939	0.963211	-0.0435555	0.008391	-0.243547	0.237637	0.127385	0	0	0.418154	-0.0598101	-0.0424401	1.16011	0.0585578	0	0	-0.187864	0.0375032	-0.024993	-0.0191011	-0.22091	0.235246	0.500493	1.09043	0	0	-0.175196	-0.211146	0.244946	0.754135	0.937543	0	0
0.14	0.176043	1.46921	-1.69621	0.644732	1.58004	0.963167	-0.0583345	0.00714253	-0.235917	0.231863	0.132297	0	0	0.424032	-0.0626552	-0.0585332	1.11972	0.0633224	0	0	-0.190733	0.0331643	-0.0189271	-0.00866252	-0.221405	0.239179	0.499455	1.09209	0	0	-0.177804	-0.211104	0.241127	0.756821	0.936824	0	0
0.15	0.182902	1.46836	-1.71401	0.645149	1.57079	0.96299	-0.0716632	0.00270373	-0.23409	0.227394	0.140966	0	0	0.427558	-0.056431	-0.0756073	1.07798	0.0624389	0	0	-0.193103	0.0320674	-0.0113001	0.00291057	-0.22339	0.243478	0.498668	1.09274	0	0	-0.181325	-0.209375	0.238204	0.759255	0.935516	0	0
0.16	0.207579	1.46767	-1.74435	0.644759	1.56144	0.962588	-0.0829365	0.000317983	-0.229947	0.226491	0.147776	0	0	0.431925	-0.0607244	-0.0937333	1.03356	0.0689325	0	0	-0.194711	0.0277634	-0.00698141	0.0128757	-0.222818	0.243457	0.497845	1.10008	0	0	-0.183755	-0.209093	0.234239	0.759937	0.938625	0	0
0.17	0.247362	1.46857	-1.78681	0.644575	1.55258	0.962006	-0.0904448	-0.00361019	-0.228283	0.228339	0.155528	0	0	0.443296	-0.0623414	-0.0999436	0.991952	0.069527	0	0	-0.19505	0.0221436	-0.00654485	0.0245895	-0.223066	0.256845	0.496436	1.0831	0	0	-0.185368	-0.210633	0.234707	0.761807	0.925944	0	0
0.18	0.263619	1.46262	-1.8112	0.644118	1.54259	0.961778	-0.109365	-0.00662895	-0.220607	0.224813	0.162803	0	0	0.431554	-0.06827	-0.139588	0.936964	0.0849512	0	0	-0.201368	0.0167589	-0.000399172	0.0343202	-0.218677	0.2368	0.491662	1.13116	0	0	-0.188192	-0.210162	0.230792	0.762476	0.937456	0	0
0.19	0.287626	1.46093	-1.83887	0.644075	1.53307	0.961124	-0.120787	-0.010355	-0.219076	0.226458	0.171807	0	0	0.430306	-0.0712195	-0.162926	0.885895	0.0934647	0	0	-0.203434	0.0120413	0.000982927	0.0437297	-0.217441	0.236523	0.492054	1.13324	0	0	-0.190183	-0.210586	0.229926	0.762154	0.936414	0	0
0.2	0.314645	1.45874	-1.8695	0.644096	1.52348	0.960398	-0.131902	-0.0151706	-0.218564	0.229851	0.181976	0	0	0.42693	-0.0731638	-0.188459	0.832733	0.101369	0	0	-0.205767	0.00667612	0.00192385	0.0529948	-0.215932	0.235739	0.492902	1.1349	0	0	-0.192112	-0.211127	0.229164	0.761016	0.934203	0	0
0.21	0.335882	1.45779	-1.8929	0.644336	1.51385	0.959465	-0.141739	-0.0190567	-0.219073	0.233649	0.191636	0	0	0.424508	-0.0748757	-0.213884	0.779773	0.108409	0	0	-0.206724	0.00271389	0.00112209	0.0617225	-0.216335	0.244628	0.496042	1.1181	0	0	-0.193911	-0.211116	0.228529	0.75852	0.937015	0	0
0.22	0.364161	1.45547	-1.92407	0.644587	1.50412	0.958606	-0.152474	-0.0247766	-0.219482	0.237893	0.201832	0	0	0.418633	-0.0747399	-0.242986	0.723647	0.113439	0	0	-0.208734	-0.00284724	0.000913989	0.070469	-0.214496	0.244548	0.49644	1.12139	0	0	-0.195298	-0.211715	0.229871	0.755265	0.935852	0	0
0.23	0.39468	1.45272	-1.95735	0.644998	1.49425	0.957721	-0.16353	-0.0313632	-0.220483	0.242218	0.212189	0	0	0.41101	-0.0727422	-0.273469	0.665797	0.117429	0	0	-0.210668	-0.00887989	0.000528648	0.0788449	-0.21245	0.244024	0.49652	1.12533	0	0	-0.196689	-0.212487	0.232951	0.751441	0.935661	0	0
0.24	0.426903	1.44942	-1.99244	0.645527	1.48422	0.956818	-0.175107	-0.0388162	-0.22195	0.246492	0.222681	0	0	0.401354	-0.0686756	-0.304864	0.605911	0.121098	0	0	-0.212504	-0.0155048	0.000338212	0.0868611	-0.210193	0.242754	0.496074	1.12933	0	0	-0.197747	-0.21334	0.23699	0.74664	0.935223	0	0
0.25	0.467864	1.44308	-2.03726	0.646129	1.47406	0.956101	-0.189194	-0.0496013	-0.224149	0.250672	0.23364	0	0	0.385672	-0.0592406	-0.33588	0.539514	0.122402	0	0	-0.21644	-0.0250104	0.000815863	0.0948511	-0.208847	0.248375	0.496189	1.11566	0	0	-0.197838	-0.215859	0.247403	0.742112	0.912918	0	0
0.26	0.496409	1.44176	-2.06704	0.647076	1.46383	0.954874	-0.200223	-0.0557272	-0.227054	0.252474	0.24254	0	0	0.377084	-0.0512169	-0.358623	0.478355	0.125604	0	0	-0.215696	-0.0299662	-0.000670402	0.101596	-0.207024	0.246106	0.495704	1.12205	0	0	-0.198527	-0.214636	0.248214	0.734546	0.913551	0	0
0.27	0.529837	1.438	-2.1031	0.648049	1.45342	0.953746	-0.213732	-0.0644633	-0.230312	0.253482	0.25188	0	0	0.363688	-0.03897	-0.379071	0.411983	0.126137	0	0	-0.21654	-0.037128	-0.00112389	0.108174	-0.205266	0.245605	0.494637	1.12944	0	0	-0.199058	-0.213715	0.250513	0.727179	0.913431	0	0
0.28	0.559191	1.43461	-2.13563	0.649076	1.44285	0.952476	-0.22747	-0.0728276	-0.233508	0.253614	0.260766	0	0	0.350482	-0.0259371	-0.393632	0.346574	0.126525	0	0	-0.216583	-0.0438177	-0.000969352	0.11423	-0.203885	0.245813	0.493687	1.1367	0	0	-0.200204	-0.212858	0.253606	0.720554	0.913224	0	0
0.29	0.588155	1.43066	-2.16902	0.650115	1.4321	0.951162	-0.241663	-0.0821281	-0.236309	0.253601	0.269683	0	0	0.335439	-0.0111444	-0.400829	0.279791	0.124642	0	0	-0.216473	-0.0511401	0.000421897	0.119806	-0.202568	0.24582	0.492736	1.14318	0	0	-0.201607	-0.211788	0.256131	0.713341	0.911487	0	0
0.3	0.613145	1.42737	-2.19879	0.651203	1.4212	0.949698	-0.255281	-0.0909453	-0.239254	0.253922	0.278273	0	0	0.321148	0.00304511	-0.400049	0.216334	0.12154	0	0	-0.215421	-0.0577544	0.00235887	0.12485	-0.201629	0.24696	0.491507	1.1478	0	0	-0.203314	-0.210525	0.258898	0.706192	0.90932	0	0
0.31	0.625044	1.41955	-2.21707	0.652233	1.40998	0.948615	-0.27665	-0.100738	-0.238217	0.248588	0.283604	0	0	0.29642	0.0204521	-0.386212	0.14545	0.110321	0	0	-0.218813	-0.066066	0.00512651	0.130398	-0.202489	0.259928	0.489954	1.13908	0	0	-0.2051	-0.210947	0.267666	0.700751	0.893891	0	0
0.32	0.625803	1.41695	-2.22373	0.653172	1.39864	0.947176	-0.296744	-0.103813	-0.230323	0.237939	0.284646	0	0	0.282788	0.0280248	-0.374303	0.097001	0.106208	0	0	-0.218009	-0.0698199	0.00862202	0.134383	-0.202858	0.267737	0.488324	1.13594	0	0	-0.207864	-0.209621	0.270912	0.693946	0.891109	0	0
0.33	0.623543	1.4155	-2.22801	0.654055	1.38718	0.945688	-0.315869	-0.105761	-0.220547	0.227601	0.284388	0	0	0.274626	0.0311193	-0.364503	0.0650445	0.10524	0	0	-0.216051	-0.0727598	0.0132326	0.13754	-0.203147	0.27417	0.486862	1.13074	0	0	-0.21108	-0.208231	0.273075	0.688312	0.888124	0	0
0.34	0.623965	1.41259	-2.2367	0.654864	1.37561	0.944299	-0.330254	-0.112221	-0.217964	0.228765	0.287844	0	0	0.267626	0.0334465	-0.354074	0.0445357	0.103145	0	0	-0.215052	-0.0774447	0.0198271	0.140741	-0.1991	0.256275	0.480055	1.17953	0	0	-0.213806	-0.206394	0.272455	0.681651	0.893011	0	0
0.35	0.622146	1.41018	-2.24265	0.655751	1.36408	0.94291	-0.341995	-0.118633	-0.216318	0.234468	0.291104	0	0	0.268338	0.0318003	-0.347253	0.0467383	0.105715	0	0	-0.213782	-0.0814172	0.0254825	0.143078	-0.200498	0.269204	0.480096	1.16035	0	0	-0.217103	-0.205216	0.273244	0.676894	0.891741	0	0
0.36	0.621757	1.40684	-2.25028	0.656679	1.35238	0.941658	-0.352564	-0.126813	-0.214962	0.243915	0.29449	0	0	0.272704	0.0291248	-0.341485	0.0644969	0.108845	0	0	-0.212863	-0.0863702	0.031843	0.144695	-0.200097	0.271348	0.477902	1.16602	0	0	-0.220002	-0.204203	0.274205	0.671961	0.890754	0	0
0.37	0.627231	1.40359	-2.2633	0.657749	1.34051	0.940436	-0.360201	-0.136802	-0.214842	0.258087	0.298049	0	0	0.281419	0.0260891	-0.335857	0.0952664	0.11275	0	0	-0.210735	-0.0920074	0.0381176	0.144841	-0.199837	0.272448	0.47649	1.17128	0	0	-0.223382	-0.203462	0.274781	0.667958	0.889001	0	0
0.38	0.639163	1.40102	-2.28188	0.65901	1.32842	0.939215	-0.364688	-0.147815	-0.215039	0.276221	0.300972	0	0	0.293562	0.0234252	-0.329502	0.134951	0.118044	0	0	-0.206755	-0.0978413	0.044046	0.143105	-0.199681	0.271576	0.47612	1.17574	0	0	-0.227448	-0.203174	0.276329	0.664491	0.887069	0	0
0.39	0.657184	1.39936	-2.30615	0.660415	1.31607	0.937997	-0.365811	-0.159479	-0.214454	0.297997	0.302624	0	0	0.307954	0.0213969	-0.323337	0.180452	0.124227	0	0	-0.200569	-0.103696	0.0504168	0.13896	-0.199902	0.269871	0.477159	1.18041	0	0	-0.232048	-0.203161	0.278815	0.661372	0.885325	0	0
0.4	0.708292	1.40048	-2.3658	0.661854	1.30367	0.936035	-0.342157	-0.1853	-0.241507	0.357662	0.317342	0	0	0.329214	0.0213953	-0.320629	0.229962	0.129834	0	0	-0.186787	-0.112057	0.0599192	0.132071	-0.200612	0.267331	0.479919	1.18467	0	0	-0.238063	-0.203495	0.280705	0.659414	0.882776	0	0
